<svg xmlns="http://www.w3.org/2000/svg" width="24" height="24" viewBox="0 0 24 24">
  <defs>
    <filter id="icon-server-a" width="155.6%" height="140%" x="-22.2%" filterUnits="objectBoundingBox">
      <feOffset dy="1" in="SourceAlpha" result="shadowOffsetOuter1"/>
      <feGaussianBlur in="shadowOffsetOuter1" result="shadowBlurOuter1" stdDeviation=".5"/>
      <feColorMatrix in="shadowBlurOuter1" result="shadowMatrixOuter1" values="0 0 0 0 0.670998087   0 0 0 0 0.670998087   0 0 0 0 0.670998087  0 0 0 0.5 0"/>
      <feMerge>
        <feMergeNode in="shadowMatrixOuter1"/>
        <feMergeNode in="SourceGraphic"/>
      </feMerge>
    </filter>
  </defs>
  <g fill="none" fill-rule="evenodd">
    <g transform="translate(3.385 2.75)">
      <g transform="translate(.88)">
        <path fill="#5A9CE0" d="M1.35800547,11.5462825 C0.611102463,11.5462825 0,12.0372583 0,12.63734 L0,14.819455 C0,15.4195367 0.611102463,15.9105125 1.35800547,15.9105125 L14.9380602,15.9105125 C15.6849632,15.9105125 16.2960657,15.4195367 16.2960657,14.819455 L16.2960657,12.63734 C16.2960657,12.0372583 15.6849632,11.5462825 14.9380602,11.5462825 L1.35800547,11.5462825 Z"/>
        <path fill="#4684C4" d="M14.9380602,5.71779482 L1.35800547,5.71779482 C0.611102463,5.71779482 0,6.20877071 0,6.80885234 L0,8.99096739 C0,9.59104902 0.611102463,10.0820249 1.35800547,10.0820249 L14.9380602,10.0820249 C15.6849632,10.0820249 16.2960657,9.59104902 16.2960657,8.99096739 L16.2960657,6.80885234 C16.2960657,6.20877071 15.6849632,5.71779482 14.9380602,5.71779482 L14.9380602,5.71779482 Z"/>
        <path fill="#3D75B1" d="M1.35800547,0 C0.611102463,0 0,0.490975885 0,1.09105752 L0,3.27317256 C0,3.8732542 0.611102463,4.36423009 1.35800547,4.36423009 L14.9380602,4.36423009 C15.6849632,4.36423009 16.2960657,3.8732542 16.2960657,3.27317256 L16.2960657,1.09105752 C16.2960657,0.490975885 15.6849632,0 14.9380602,0 L1.35800547,0 Z"/>
      </g>
      <g fill="#FFF" transform="translate(2 1)">
        <circle cx="1.541" cy="1.15" r="1"/>
        <polygon points="8.525 1.598 8.525 .702 9.421 .702 9.421 1.598"/>
        <polygon points="13.429 1.598 12.534 1.598 12.534 .702 13.429 .702"/>
        <polygon points="11.43 1.598 10.534 1.598 10.534 .702 11.43 .702"/>
      </g>
      <g fill="#FFF" transform="translate(2 6.747)">
        <circle cx="1.541" cy="1.15" r="1"/>
        <polygon points="8.525 1.598 8.525 .702 9.421 .702 9.421 1.598"/>
        <polygon points="13.429 1.598 12.534 1.598 12.534 .702 13.429 .702"/>
        <polygon points="11.43 1.598 10.534 1.598 10.534 .702 11.43 .702"/>
      </g>
      <g fill="#FFF" transform="translate(2 12.585)">
        <circle cx="1.541" cy="1.15" r="1"/>
        <polygon points="8.525 1.598 8.525 .702 9.421 .702 9.421 1.598"/>
        <polygon points="13.429 1.598 12.534 1.598 12.534 .702 13.429 .702"/>
        <polygon points="11.43 1.598 10.534 1.598 10.534 .702 11.43 .702"/>
      </g>
    </g>
    <g filter="url(#icon-server-a)" transform="translate(13.832 12.885)">
      <rect width="7.183" height="6.723" x="1" y="1.974" fill="#FFF"/>
      <g transform="translate(0 .816)">
        <rect width="9" height="9" fill="#5A8C5A" fill-rule="nonzero" rx="2.615"/>
        <path fill="#FFF" stroke="#FFF" stroke-linecap="round" stroke-linejoin="round" stroke-width="1.8" d="M1.79999999 4.49999929L7.19999998 4.49999929M4.49999999 7.19999928L4.49999999 1.79999999"/>
        <path fill="#FCFFFF" d="M0.899999997,4.49999929 L8.09999997,4.49999929 C8.09999997,4.49999929 8.09999997,4.49999929 8.09999997,2.6999993 C8.09999997,0.899999997 7.64999997,0.899999997 4.49999999,0.899999997 C1.35,0.899999997 0.899999997,0.899999997 0.899999997,2.6999993 C0.899999997,4.49999929 0.899999997,4.49999929 0.899999997,4.49999929 L0.899999997,4.49999929 Z" opacity=".3"/>
      </g>
    </g>
  </g>
</svg>
