<svg xmlns="http://www.w3.org/2000/svg" width="24" height="24" viewBox="0 0 24 24">
  <defs>
    <filter id="icon-adddb-a" width="155.6%" height="140%" x="-22.2%" filterUnits="objectBoundingBox">
      <feOffset dy="1" in="SourceAlpha" result="shadowOffsetOuter1"/>
      <feGaussianBlur in="shadowOffsetOuter1" result="shadowBlurOuter1" stdDeviation=".5"/>
      <feColorMatrix in="shadowBlurOuter1" result="shadowMatrixOuter1" values="0 0 0 0 0.670998087   0 0 0 0 0.670998087   0 0 0 0 0.670998087  0 0 0 0.5 0"/>
      <feMerge>
        <feMergeNode in="shadowMatrixOuter1"/>
        <feMergeNode in="SourceGraphic"/>
      </feMerge>
    </filter>
  </defs>
  <g fill="none" fill-rule="evenodd" transform="translate(4 3)">
    <g fill="#4782C0" fill-rule="nonzero" transform="translate(.495 .056)">
      <path d="M7.75940688,14.0199873 C4.84662253,14.0199873 1.80037638,13.4077701 0.0151308434,12.1103973 C0.0151308434,12.1316387 0,12.1513282 0,12.1725695 C0,12.4983676 0,13.6956441 0,14.0199873 C0,15.7233711 3.47349849,17.1040606 7.75940688,17.1040606 C12.0453153,17.1040606 15.5188138,15.7234681 15.5188138,14.0199873 C15.5188138,13.6956441 15.5188138,12.4983676 15.5188138,12.1725695 C15.5188138,12.1513282 15.5036829,12.1316387 15.5036829,12.1103973 C13.7184374,13.4076731 10.6707363,14.0199873 7.75940688,14.0199873 Z" opacity=".566"/>
      <path d="M0,7.62904885 C0,8.02002596 0,9.09150306 0,9.39916354 C0,11.1025473 3.47349849,12.4816849 7.75940688,12.4816849 C12.0453153,12.4816849 15.5188138,11.1025473 15.5188138,9.39916354 C15.5188138,9.09150306 15.5188138,8.02002596 15.5188138,7.62904885 C13.736575,8.93544199 10.6797567,9.55376972 7.75940688,9.55376972 C4.83905711,9.55376972 1.78223877,8.93544199 0,7.62904885 Z" opacity=".808"/>
      <path d="M7.75940688,0 C3.47349849,0 0,1.37913758 0,3.08252138 C0,3.40686458 0,4.60559595 0,4.93139405 C0,6.63177108 3.47349849,8.01246054 7.75940688,8.01246054 C12.0453153,8.01246054 15.5188138,6.63186807 15.5188138,4.93139405 C15.5188138,4.60559595 15.5188138,3.40676759 15.5188138,3.08252138 C15.5188138,1.37913758 12.0453153,0 7.75940688,0 Z"/>
    </g>
    <g filter="url(#icon-adddb-a)" transform="translate(9.983 10.29)">
      <rect width="7.183" height="6.723" x="1" y="1.974" fill="#FFF"/>
      <g transform="translate(0 .816)">
        <rect width="9" height="9" fill="#5A8C5A" fill-rule="nonzero" rx="2.615"/>
        <path fill="#FFF" stroke="#FFF" stroke-linecap="round" stroke-linejoin="round" stroke-width="1.8" d="M1.79999999 4.49999929L7.19999998 4.49999929M4.49999999 7.19999928L4.49999999 1.79999999"/>
        <path fill="#FCFFFF" d="M0.899999997,4.49999929 L8.09999997,4.49999929 C8.09999997,4.49999929 8.09999997,4.49999929 8.09999997,2.6999993 C8.09999997,0.899999997 7.64999997,0.899999997 4.49999999,0.899999997 C1.35,0.899999997 0.899999997,0.899999997 0.899999997,2.6999993 C0.899999997,4.49999929 0.899999997,4.49999929 0.899999997,4.49999929 L0.899999997,4.49999929 Z" opacity=".3"/>
      </g>
    </g>
  </g>
</svg>
