<?xml version="1.0" encoding="utf-8"?>
<!-- Generator: Adobe Illustrator 21.0.2, SVG Export Plug-In . SVG Version: 6.00 Build 0)  -->
<svg version="1.1" id="Layer_1" xmlns="http://www.w3.org/2000/svg" xmlns:xlink="http://www.w3.org/1999/xlink" x="0px" y="0px"
	 viewBox="0 0 50 50" style="enable-background:new 0 0 50 50;" xml:space="preserve">
<style type="text/css">
	.st0{fill:#808285;}
	.st1{fill:#FFFFFF;}
</style>
<path class="st0" d="M19.5,45.8L4.2,30.5c-3-3-3-7.9,0-10.9L19.5,4.2c3-3,7.9-3,10.9,0l15.4,15.4c3,3,3,7.9,0,10.9L30.5,45.8
	C27.4,48.8,22.6,48.8,19.5,45.8z"/>
<path class="st1" d="M20.2,39.7c-0.3,0-0.7,0-1,0c-0.1,0-0.1,0-0.2-0.1c-1.7-0.3-2.8-1.3-3.3-3c-0.1-0.2-0.1-0.4-0.2-0.6
	c0-0.3,0-0.7,0-1c0,0,0-0.1,0-0.1c0.2-1.2,0.8-2.2,1.9-2.9c0.1-0.1,0.2-0.2,0.2-0.4c0-4.4,0-8.8,0-13.2c0-0.2-0.1-0.3-0.2-0.4
	c-0.8-0.6-1.4-1.3-1.7-2.3c-0.1-0.2-0.1-0.4-0.2-0.6c0-0.3,0-0.7,0-1c0-0.1,0-0.1,0.1-0.2c0.3-1.7,1.3-2.8,3-3.3
	c0.2-0.1,0.4-0.1,0.6-0.2c0.3,0,0.7,0,1,0c0,0,0.1,0,0.1,0.1c1.7,0.3,3.1,1.6,3.4,3.3c0.4,1.6-0.3,3.3-1.8,4.3
	c-0.2,0.1-0.2,0.2-0.2,0.5c0,3.1,0,6.2,0,9.3c0,0.1,0,0.2,0,0.3c0,0,0.1,0,0.1,0c1.4-0.7,2.9-0.9,4.4-0.9c1.8,0,3.1-1,3.6-2.8
	c0.2-0.5,0.2-1,0.3-1.6c0-0.3-0.1-0.5-0.3-0.6c-1.5-1.1-2.1-3-1.6-4.7c0.6-1.8,2.2-2.9,4.1-2.9c1.8,0,3.4,1.3,3.9,3.1
	c0.1,0.2,0.1,0.4,0.2,0.6c0,0.3,0,0.7,0,1c0,0,0,0,0,0.1c-0.2,1.3-0.9,2.2-1.9,3c-0.1,0.1-0.1,0.2-0.1,0.3c0,1.3-0.3,2.5-0.7,3.7
	c-0.9,2.2-2.3,3.7-4.6,4.5c-1.1,0.4-2.2,0.5-3.3,0.5c-1.2,0-2.2,0.4-3,1.3c0.1,0.1,0.1,0.2,0.2,0.2c1.9,2.4,0.8,5.8-2.1,6.6
	C20.7,39.6,20.5,39.6,20.2,39.7z M21.8,35.5c0-1.2-0.9-2.1-2.1-2.1c-1.1,0-2.1,0.9-2.1,2.1c0,1.2,0.9,2.1,2.1,2.1
	C20.9,37.6,21.8,36.6,21.8,35.5z M32.3,16.6c-1.2,0-2.1,0.9-2.1,2.1c0,1.2,0.9,2.1,2.1,2.1c1.2,0,2.1-0.9,2.1-2.1
	C34.4,17.6,33.4,16.6,32.3,16.6z M21.8,14.5c0-1.2-0.9-2.1-2.1-2.1c-1.1,0-2.1,0.9-2.1,2.1c0,1.2,0.9,2.1,2.1,2.1
	C20.9,16.6,21.8,15.7,21.8,14.5z"/>
</svg>
