<?xml version="1.0" encoding="utf-8"?>
<!-- Generator: Adobe Illustrator 21.0.2, SVG Export Plug-In . SVG Version: 6.00 Build 0)  -->
<svg version="1.1" id="Layer_1" xmlns="http://www.w3.org/2000/svg" xmlns:xlink="http://www.w3.org/1999/xlink" x="0px" y="0px"
	 viewBox="0 0 50 50" style="enable-background:new 0 0 50 50;" xml:space="preserve">
<style type="text/css">
	.st0{fill:#48A2DF;}
	.st1{fill:#FFFFFF;stroke:#48A2DF;stroke-miterlimit:10;}
</style>
<path class="st0" d="M19.5,45.8L4.2,30.5c-3-3-3-7.9,0-10.9L19.5,4.2c3-3,7.9-3,10.9,0l15.4,15.4c3,3,3,7.9,0,10.9L30.5,45.8
	C27.4,48.8,22.6,48.8,19.5,45.8z"/>
<g>
	<path class="st1" d="M20.4,25c1-1.1,1.6-2.6,1.6-4.3c0-3.2-2.2-5.9-4.8-5.9s-4.8,2.6-4.8,5.9c0,1.7,0.6,3.3,1.6,4.3
		c-3.3,1.1-5.6,3.7-5.6,6.7H26C26,28.7,23.7,26.1,20.4,25z"/>
	<path class="st1" d="M34.8,25c1-1.1,1.6-2.6,1.6-4.3c0-3.2-2.2-5.9-4.8-5.9s-4.8,2.6-4.8,5.9c0,1.7,0.6,3.3,1.6,4.3
		c-3.3,1.1-5.6,3.7-5.6,6.7h17.8C40.4,28.7,38,26.1,34.8,25z"/>
	<path class="st1" d="M28.3,29.1c1-1.1,1.6-2.6,1.6-4.3c0-3.2-2.2-5.9-4.8-5.9s-4.8,2.6-4.8,5.9c0,1.7,0.6,3.3,1.6,4.3
		c-3.3,1.1-5.6,3.7-5.6,6.7h17.8C33.9,32.8,31.5,30.2,28.3,29.1z"/>
</g>
</svg>
