<?xml version="1.0" encoding="utf-8"?>
<!-- Generator: Adobe Illustrator 21.0.2, SVG Export Plug-In . SVG Version: 6.00 Build 0)  -->
<svg version="1.1" id="Layer_1" xmlns="http://www.w3.org/2000/svg" xmlns:xlink="http://www.w3.org/1999/xlink" x="0px" y="0px"
	 viewBox="0 0 50 50" style="enable-background:new 0 0 50 50;" xml:space="preserve">
<style type="text/css">
	.st0{fill:url(#SVGID_1_);}
	.st1{fill:url(#SVGID_2_);}
</style>
<g>
	<linearGradient id="SVGID_1_" gradientUnits="userSpaceOnUse" x1="-73.5354" y1="34.9626" x2="50.4921" y2="34.9626">
		<stop  offset="0" style="stop-color:#7E9CB0"/>
		<stop  offset="0.9987" style="stop-color:#436074"/>
	</linearGradient>
	<path class="st0" d="M47.2,30.9c-0.1-2.3-0.7-4.5-1.5-6.6l-0.9,0.2c0.3,2.1,0.3,4.2,0,6.2c-0.4,2-1.1,3.7-2.3,5.2
		c-2.3,2.9-5.9,4.3-9.6,4.6c-3.7,0.3-7.5-0.3-10.7-2.1c-1.6-0.9-3-1.8-4.4-2.8c-0.2-0.1-0.4-0.3-0.6-0.4l3.3-1.2L6.9,22.5L3.6,40.1
		L8,38.6c1.2,1.8,2.6,3.4,4.3,4.6c2.1,1.6,4.5,2.6,7,3.3c4.9,1.2,9.9,1.4,14.8,0.2c2.4-0.6,4.7-1.6,6.8-3.1c2.1-1.4,3.8-3.4,4.9-5.6
		C46.8,35.7,47.3,33.3,47.2,30.9z"/>
	<linearGradient id="SVGID_2_" gradientUnits="userSpaceOnUse" x1="-75.5403" y1="15.3356" x2="48.4873" y2="15.3356">
		<stop  offset="0" style="stop-color:#7E9CB0"/>
		<stop  offset="0.9987" style="stop-color:#436074"/>
	</linearGradient>
	<path class="st1" d="M4.1,19.5c0.4-2,1.1-3.7,2.3-5.2c2.3-2.9,5.9-4.3,9.6-4.6c3.7-0.3,7.5,0.3,10.7,2.1c1.6,0.9,3,1.8,4.4,2.8
		c0.2,0.1,0.4,0.3,0.6,0.4l-3.3,1.2L42,27.8l3.2-17.7l-4.4,1.6c-1.2-1.8-2.6-3.4-4.3-4.6c-2.1-1.6-4.5-2.6-7-3.3
		c-4.9-1.2-9.9-1.4-14.7-0.2c-2.4,0.6-4.7,1.6-6.8,3.1C6,8.1,4.2,10.1,3.1,12.3c-1.1,2.2-1.6,4.7-1.5,7c0.1,2.3,0.7,4.5,1.5,6.6
		l0.9-0.2C3.8,23.6,3.8,21.5,4.1,19.5z"/>
</g>
</svg>
